<svg version="1.1" xmlns="http://www.w3.org/2000/svg" viewBox="0 0 489 369" width="489" height="369" filter="invert(93%) hue-rotate(180deg)" class="excalidraw-svg"><!-- svg-source:excalidraw --><metadata></metadata><defs><style class="style-fonts">
      </style></defs><rect x="0" y="0" width="489" height="369" fill="#ffffff"></rect><g transform="translate(10 118) rotate(0 234.5 120.5)" stroke="none"><path fill="#1e1e1e" d="M 3.69,0 Q 3.69,0 3.84,2.58 3.98,5.17 4.36,7.78 4.73,10.40 5.19,13.23 5.65,16.07 6.54,19.33 7.44,22.60 8.11,26.61 8.78,30.63 9.03,34.77 9.27,38.91 9.86,42.71 10.46,46.51 11.48,51.90 12.51,57.29 13.49,62.80 14.48,68.31 15.45,74.42 16.42,80.53 19.92,91.54 23.42,102.55 25.79,110.51 28.15,118.47 30.56,125.22 32.97,131.98 37.64,140.43 42.31,148.89 46.62,156.28 50.92,163.67 55.53,169.55 60.13,175.44 67.81,183.66 75.48,191.89 81.80,197.03 88.12,202.17 93.15,206.11 98.17,210.06 105.87,214.21 113.58,218.36 120.02,221.29 126.45,224.21 132.33,226.60 138.22,228.99 145.77,231.12 153.33,233.25 159.32,234.14 165.30,235.03 171.37,236.00 177.45,236.97 185.35,237.36 193.24,237.76 199.39,237.36 205.53,236.96 211.87,236.23 218.21,235.49 227.21,234.03 236.20,232.57 243.19,231.37 250.19,230.18 256.92,229.09 263.65,228.00 270.44,226.41 277.23,224.82 283.17,224.11 289.11,223.40 294.10,222.54 299.08,221.69 304.32,220.47 309.55,219.26 314.26,217.62 318.97,215.99 322.86,213.92 326.75,211.85 331.31,209.23 335.87,206.62 339.64,203.34 343.41,200.06 348.04,196.55 352.66,193.03 357.36,188.49 362.06,183.96 366.71,179.67 371.37,175.38 376.50,170.68 381.64,165.99 386.67,161.14 391.70,156.30 397.03,151.34 402.35,146.38 406.84,141.48 411.32,136.58 414.60,132.00 417.87,127.41 421.63,122.51 425.39,117.60 428.10,113.84 430.82,110.07 433.33,105.44 435.84,100.80 437.78,96.81 439.72,92.82 441.71,88.80 443.70,84.77 445.02,81.14 446.33,77.51 447.71,74.09 449.10,70.67 450.50,67.46 451.90,64.24 453.68,60.83 455.47,57.41 456.38,54.01 457.29,50.61 458.28,47.00 459.28,43.40 460.19,40.31 461.11,37.22 462.01,34.43 462.90,31.64 463.46,28.96 464.02,26.27 464.14,22.22 464.25,18.18 464.11,14.64 463.97,11.11 463.94,8.79 463.92,6.47 464.05,5.66 464.19,4.85 464.58,4.13 464.97,3.40 465.57,2.84 466.17,2.28 466.91,1.94 467.66,1.60 468.48,1.51 469.29,1.43 470.10,1.61 470.90,1.79 471.60,2.22 472.30,2.65 472.83,3.27 473.36,3.90 473.66,4.67 473.96,5.43 474.00,6.25 474.04,7.07 473.81,7.86 473.59,8.65 473.12,9.33 472.66,10.01 472.00,10.50 471.35,11.00 470.57,11.25 469.79,11.51 468.97,11.51 468.14,11.50 467.37,11.24 466.59,10.97 465.94,10.47 465.29,9.97 464.83,9.29 464.37,8.60 464.16,7.81 463.94,7.02 463.99,6.20 464.04,5.38 464.35,4.62 464.66,3.86 465.19,3.23 465.73,2.61 466.43,2.19 467.14,1.77 467.94,1.60 468.75,1.43 469.56,1.52 470.38,1.61 471.12,1.96 471.86,2.31 472.46,2.88 473.05,3.45 473.43,4.18 473.81,4.90 473.94,5.71 474.07,6.53 474.07,6.52 474.07,6.52 473.88,10.40 473.68,14.28 473.52,16.48 473.36,18.68 473.10,21.19 472.84,23.70 472.35,25.95 471.86,28.21 470.99,31.27 470.12,34.32 469.01,36.93 467.90,39.53 466.80,42.38 465.70,45.22 464.66,48.80 463.61,52.38 462.43,56.42 461.25,60.46 459.48,63.73 457.70,67.00 456.13,70.05 454.56,73.09 453.01,76.28 451.47,79.47 449.94,83.29 448.41,87.10 446.43,91.11 444.45,95.12 442.45,99.22 440.46,103.31 437.77,108.23 435.08,113.14 432.32,116.97 429.56,120.80 425.85,125.64 422.14,130.48 418.67,135.30 415.20,140.12 410.57,145.17 405.93,150.23 400.64,155.15 395.34,160.08 390.26,164.98 385.18,169.87 380.05,174.55 374.93,179.24 370.31,183.49 365.70,187.74 360.77,192.47 355.84,197.21 351.34,200.63 346.84,204.04 342.67,207.61 338.50,211.17 333.85,213.83 329.20,216.49 324.95,218.72 320.70,220.95 315.72,222.66 310.74,224.37 305.36,225.62 299.97,226.86 294.85,227.74 289.73,228.62 284.08,229.28 278.42,229.93 271.45,231.56 264.49,233.19 257.78,234.27 251.08,235.36 244.06,236.56 237.04,237.76 227.93,239.23 218.82,240.71 212.34,241.46 205.86,242.21 199.42,242.61 192.98,243.01 184.80,242.59 176.62,242.16 170.57,241.20 164.52,240.23 158.21,239.27 151.90,238.31 144.07,236.09 136.24,233.87 130.25,231.44 124.27,229.01 117.67,226.01 111.07,223.01 102.99,218.62 94.91,214.23 89.84,210.26 84.77,206.28 78.18,200.91 71.59,195.53 63.75,187.13 55.91,178.74 51.09,172.57 46.26,166.40 41.90,158.97 37.54,151.53 32.65,142.70 27.77,133.86 25.26,126.98 22.76,120.10 20.34,112.21 17.92,104.32 14.23,92.93 10.53,81.54 9.44,75.53 8.35,69.51 7.20,64.09 6.04,58.67 4.74,53.22 3.45,47.76 2.62,43.63 1.80,39.50 1.43,35.80 1.06,32.10 0.27,28.51 -0.50,24.92 -1.68,21.10 -2.86,17.27 -3.22,14.26 -3.58,11.24 -3.78,8.21 -3.98,5.17 -3.84,2.58 -3.69,0 -3.63,-0.44 -3.58,-0.88 -3.42,-1.29 -3.26,-1.71 -3.01,-2.08 -2.76,-2.44 -2.43,-2.74 -2.09,-3.03 -1.70,-3.24 -1.30,-3.45 -0.87,-3.55 -0.44,-3.66 0.00,-3.66 0.44,-3.66 0.87,-3.55 1.30,-3.45 1.70,-3.24 2.09,-3.03 2.43,-2.74 2.76,-2.44 3.01,-2.08 3.26,-1.71 3.42,-1.29 3.58,-0.88 3.63,-0.44 3.69,0.00 3.69,0.00 L 3.69,0 Z"></path></g><g transform="translate(127 10) rotate(0 -11 81.5)" stroke="none"><path fill="#1e1e1e" d="M 3.07,0.71 Q 3.07,0.71 2.24,4.45 1.40,8.19 0.69,12.51 -0.01,16.84 -0.93,21.38 -1.85,25.91 -2.83,30.70 -3.81,35.48 -5.10,42.37 -6.39,49.27 -7.51,57.60 -8.63,65.93 -9.69,75.51 -10.75,85.08 -11.78,95.19 -12.81,105.30 -13.83,113.09 -14.85,120.88 -15.28,127.82 -15.71,134.76 -16.48,140.44 -17.25,146.11 -17.78,149.96 -18.31,153.81 -18.47,157.68 -18.63,161.56 -18.76,162.06 -18.89,162.56 -19.18,163.00 -19.46,163.43 -19.87,163.76 -20.28,164.08 -20.77,164.25 -21.26,164.42 -21.78,164.43 -22.31,164.44 -22.80,164.28 -23.30,164.12 -23.72,163.81 -24.14,163.50 -24.43,163.08 -24.73,162.65 -24.88,162.15 -25.03,161.65 -25.01,161.13 -24.99,160.61 -24.80,160.12 -24.61,159.64 -24.28,159.24 -23.95,158.83 -23.51,158.56 -23.07,158.28 -22.56,158.16 -22.05,158.04 -21.54,158.09 -21.02,158.14 -20.54,158.35 -20.07,158.57 -19.68,158.92 -19.30,159.27 -19.05,159.73 -18.80,160.18 -18.71,160.70 -18.61,161.21 -18.69,161.72 -18.77,162.24 -19.00,162.70 -19.24,163.17 -19.61,163.53 -19.99,163.89 -20.46,164.12 -20.93,164.34 -21.44,164.41 -21.96,164.47 -22.47,164.37 -22.98,164.26 -23.43,164.00 -23.88,163.74 -24.22,163.35 -24.57,162.96 -24.77,162.48 -24.97,161.99 -25.00,161.47 -25.04,160.96 -25.04,160.96 -25.04,160.96 -24.46,156.94 -23.88,152.92 -23.19,149.16 -22.50,145.40 -21.76,139.92 -21.02,134.44 -20.58,127.31 -20.15,120.19 -19.16,112.48 -18.16,104.76 -17.15,94.63 -16.14,84.50 -15.11,74.85 -14.07,65.21 -12.97,56.74 -11.87,48.27 -10.64,41.32 -9.41,34.38 -8.51,29.60 -7.62,24.82 -6.83,20.39 -6.05,15.95 -5.45,11.35 -4.85,6.75 -3.96,3.02 -3.07,-0.71 -2.94,-1.06 -2.81,-1.42 -2.60,-1.74 -2.39,-2.05 -2.11,-2.31 -1.83,-2.57 -1.49,-2.75 -1.16,-2.93 -0.79,-3.03 -0.42,-3.13 -0.04,-3.13 0.33,-3.14 0.70,-3.05 1.07,-2.97 1.41,-2.79 1.75,-2.62 2.04,-2.37 2.33,-2.12 2.55,-1.81 2.77,-1.50 2.91,-1.15 3.05,-0.80 3.10,-0.42 3.15,-0.04 3.11,0.33 3.07,0.71 3.07,0.71 L 3.07,0.71 Z"></path></g><g transform="translate(316 38) rotate(0 -2.5 61)" stroke="none"><path fill="#1e1e1e" d="M 3.56,0 Q 3.56,0 3.74,2.3 3.92,4.6 4.06,7.01 4.20,9.43 4.25,12.46 4.29,15.50 4.23,19.09 4.17,22.69 3.97,27.09 3.76,31.49 3.61,36.23 3.46,40.98 3.34,46.16 3.23,51.34 3.15,56.41 3.06,61.49 3.00,66.52 2.94,71.56 2.90,76.57 2.86,81.58 2.85,85.73 2.84,89.87 2.92,93.64 3.00,97.42 2.87,100.62 2.75,103.81 2.82,106.20 2.89,108.59 2.35,111.23 1.82,113.88 0.64,118.23 -0.53,122.58 -0.82,123.24 -1.11,123.91 -1.60,124.44 -2.09,124.97 -2.72,125.32 -3.36,125.67 -4.07,125.80 -4.78,125.93 -5.50,125.83 -6.21,125.72 -6.86,125.39 -7.50,125.06 -8.01,124.55 -8.52,124.03 -8.83,123.38 -9.15,122.73 -9.24,122.01 -9.33,121.29 -9.18,120.58 -9.04,119.87 -8.68,119.24 -8.31,118.62 -7.77,118.14 -7.22,117.66 -6.56,117.38 -5.89,117.11 -5.17,117.05 -4.45,117.00 -3.74,117.18 -3.04,117.37 -2.44,117.76 -1.83,118.16 -1.39,118.73 -0.94,119.30 -0.70,119.98 -0.45,120.66 -0.44,121.38 -0.43,122.11 -0.65,122.80 -0.87,123.49 -1.30,124.07 -1.73,124.65 -2.32,125.07 -2.91,125.49 -3.60,125.69 -4.30,125.90 -5.02,125.87 -5.75,125.84 -6.42,125.58 -7.10,125.33 -7.66,124.87 -8.22,124.41 -8.60,123.80 -8.98,123.18 -9.15,122.48 -9.32,121.77 -9.25,121.05 -9.18,120.33 -9.18,120.33 -9.19,120.33 -8.26,117.69 -7.34,115.06 -5.93,111.62 -4.53,108.18 -4.21,105.68 -3.90,103.18 -3.45,100.30 -3.00,97.42 -2.92,93.64 -2.84,89.87 -2.85,85.73 -2.86,81.58 -2.90,76.57 -2.94,71.56 -3.00,66.52 -3.06,61.49 -3.15,56.41 -3.23,51.34 -3.34,46.16 -3.46,40.98 -3.61,36.23 -3.76,31.49 -3.97,27.09 -4.17,22.69 -4.23,19.09 -4.29,15.50 -4.25,12.46 -4.20,9.43 -4.06,7.01 -3.92,4.6 -3.74,2.3 -3.56,0 -3.51,-0.42 -3.46,-0.85 -3.31,-1.25 -3.15,-1.65 -2.91,-2.01 -2.67,-2.36 -2.34,-2.65 -2.02,-2.93 -1.64,-3.13 -1.26,-3.33 -0.84,-3.43 -0.42,-3.54 0.00,-3.54 0.43,-3.54 0.84,-3.43 1.26,-3.33 1.64,-3.13 2.02,-2.93 2.34,-2.65 2.67,-2.36 2.91,-2.01 3.15,-1.65 3.31,-1.25 3.46,-0.85 3.51,-0.42 3.56,0.00 3.56,0.00 L 3.56,0 Z"></path></g></svg>